<?xml version="1.0" standalone="no"?>
<!DOCTYPE svg PUBLIC "-//W3C//DTD SVG 20010904//EN"
 "http://www.w3.org/TR/2001/REC-SVG-20010904/DTD/svg10.dtd">
<svg version="1.0" xmlns="http://www.w3.org/2000/svg"
 width="1200.000000pt" height="1200.000000pt" viewBox="0 0 1200.000000 1200.000000"
 preserveAspectRatio="xMidYMid meet">
<metadata>
Created by potrace 1.11, written by Peter Selinger 2001-2013
</metadata>
<g transform="translate(0.000000,1200.000000) scale(0.100000,-0.100000)"
fill="#000000" stroke="none">
<path d="M0 6000 l0 -6000 6000 0 6000 0 0 6000 0 6000 -6000 0 -6000 0 0
-6000z m6190 3376 c466 -18 1022 -179 1437 -417 496 -284 888 -651 1186 -1110
74 -114 187 -312 187 -328 0 -9 -78 -47 -83 -40 -2 2 -32 56 -66 119 -431 787
-1199 1375 -2074 1589 -190 47 -235 55 -419 76 -902 102 -1799 -171 -2493
-760 l-90 -76 -27 31 c-16 17 -28 34 -28 39 0 11 142 132 256 218 516 391
1194 634 1839 662 88 3 176 5 195 4 19 -1 100 -4 180 -7z m-10 -410 c245 -10
579 -80 837 -176 867 -324 1516 -1010 1802 -1903 142 -445 170 -987 75 -1454
-117 -576 -392 -1091 -804 -1504 -254 -255 -476 -417 -780 -569 -313 -157
-644 -254 -1010 -296 -240 -27 -603 -12 -865 36 -758 140 -1453 596 -1894
1240 -580 846 -678 1959 -256 2893 150 331 346 611 619 882 519 515 1207 821
1924 853 81 4 167 6 192 5 25 -1 97 -4 160 -7z m-2852 -1043 c-73 -100 -196
-302 -262 -432 -175 -345 -278 -686 -332 -1097 -24 -180 -24 -569 0 -759 95
-762 414 -1416 951 -1950 299 -298 660 -540 1040 -695 44 -18 82 -35 84 -36 2
-2 -4 -24 -13 -48 l-17 -45 -72 30 c-945 393 -1666 1192 -1952 2164 -45 152
-79 310 -105 480 -28 178 -38 583 -21 772 56 606 253 1146 598 1641 l64 93 39
-31 40 -31 -42 -56z m5947 -1161 c170 -760 83 -1521 -254 -2217 -170 -352
-372 -636 -646 -911 -485 -486 -1078 -801 -1755 -933 -356 -70 -764 -78 -1128
-24 l-114 17 7 45 c4 25 8 47 10 49 1 1 44 -4 96 -12 341 -54 741 -49 1089 14
832 151 1580 629 2083 1332 327 458 537 1032 588 1608 16 188 6 565 -20 742
-19 127 -57 314 -81 398 -11 40 -8 45 40 58 27 7 37 5 43 -5 5 -8 23 -80 42
-161z"/>
<path d="M5745 8870 c-266 -27 -462 -69 -686 -146 -698 -239 -1280 -740 -1616
-1391 -94 -180 -143 -301 -197 -483 -250 -834 -121 -1714 356 -2428 467 -698
1203 -1151 2045 -1258 149 -19 495 -21 643 -4 668 79 1244 353 1708 813 240
237 402 460 551 757 210 420 303 815 303 1285 -1 362 -53 661 -173 983 -178
481 -473 897 -869 1226 -408 340 -918 562 -1455 632 -137 18 -490 26 -610 14z
m285 -800 c19 -19 20 -33 20 -207 l0 -187 113 112 c63 62 119 112 125 112 16
0 52 -37 52 -52 0 -6 -65 -77 -145 -158 l-145 -146 0 -283 c0 -255 2 -283 16
-277 13 5 462 263 472 271 2 2 26 88 53 191 36 135 56 194 71 207 26 22 34 21
57 -2 22 -22 22 -20 -28 -206 -17 -60 -28 -111 -27 -113 4 -3 251 137 291 164
31 22 74 18 84 -8 4 -12 6 -30 4 -39 -3 -9 -77 -58 -164 -109 -88 -51 -156
-96 -152 -100 4 -5 62 -22 128 -39 164 -43 167 -44 163 -83 -6 -56 -19 -56
-232 1 l-197 53 -152 -87 c-248 -143 -339 -197 -335 -200 4 -3 321 -186 410
-237 37 -21 75 -38 85 -38 10 0 101 23 202 50 200 54 221 54 221 1 0 -16 -6
-33 -12 -39 -7 -5 -77 -27 -156 -48 -120 -31 -139 -39 -125 -49 10 -7 79 -47
153 -89 125 -72 170 -105 170 -127 0 -20 -41 -50 -60 -44 -11 3 -88 46 -172
95 -84 49 -153 88 -155 86 -1 -1 15 -65 35 -143 37 -137 39 -171 12 -188 -6
-4 -22 -4 -35 -1 -27 7 -30 13 -89 237 -35 129 -49 167 -66 179 -13 8 -122 72
-244 143 l-221 127 -3 -282 -2 -282 145 -146 c80 -81 145 -151 145 -156 0 -21
-32 -54 -52 -54 -13 0 -61 40 -129 107 l-109 107 0 -183 c0 -106 -4 -190 -10
-202 -7 -12 -21 -19 -40 -19 -19 0 -33 7 -40 19 -6 12 -10 96 -10 202 l0 183
-109 -107 c-68 -67 -116 -107 -129 -107 -25 0 -53 36 -45 59 3 9 68 79 144
156 l139 141 -2 282 -3 282 -235 -135 c-129 -75 -240 -142 -246 -150 -6 -8
-28 -79 -48 -157 -56 -216 -64 -237 -91 -244 -13 -3 -29 -3 -35 1 -27 17 -25
51 12 188 20 78 36 142 35 143 -1 2 -71 -37 -155 -86 -84 -49 -161 -92 -172
-95 -19 -6 -60 24 -60 45 0 22 50 58 193 139 81 46 147 85 145 86 -2 2 -66 20
-143 40 -77 20 -146 42 -153 48 -20 16 -11 68 13 77 13 5 87 -11 200 -41 99
-27 188 -49 198 -49 10 0 125 62 257 138 226 129 239 138 220 152 -11 8 -122
73 -245 144 l-225 128 -196 -53 c-213 -57 -226 -57 -232 -1 -4 38 1 40 143 77
55 15 115 31 133 37 l34 10 -154 89 c-84 49 -159 93 -167 97 -7 5 -13 22 -13
37 0 29 15 45 44 45 10 0 88 -40 174 -90 85 -49 158 -90 160 -90 3 0 2 10 -2
23 -4 12 -22 78 -40 147 -33 130 -33 153 6 163 40 10 57 -21 105 -203 25 -96
48 -182 51 -191 2 -9 26 -28 53 -42 27 -15 137 -78 245 -141 l196 -114 0 286
0 286 -145 146 c-80 81 -145 152 -145 158 0 15 36 52 52 52 6 0 62 -50 125
-112 l113 -112 0 187 c0 174 1 188 20 207 11 11 25 20 30 20 6 0 19 -9 30 -20z
m-1921 -2836 c29 -6 31 -9 31 -50 l0 -43 -62 6 c-54 5 -67 2 -88 -15 -24 -19
-25 -26 -28 -142 -5 -181 7 -220 69 -220 l29 0 0 65 c0 63 -1 65 -25 65 -23 0
-25 4 -25 45 l0 45 75 0 75 0 0 -149 0 -149 -66 -7 c-125 -14 -181 7 -219 81
-17 34 -20 59 -20 189 0 138 2 154 24 199 18 37 34 53 65 67 42 19 108 24 165
13z m303 -226 c3 -223 3 -223 26 -226 19 -3 22 -9 22 -48 l0 -44 -44 0 c-102
0 -106 10 -106 305 l0 235 50 0 50 0 2 -222z m1128 177 l0 -45 -55 0 -55 0 0
45 0 45 55 0 55 0 0 -45z m1440 -65 l0 -110 60 0 60 0 0 110 0 110 53 0 52 0
0 -267 0 -268 -53 -3 -52 -3 0 115 0 116 -60 0 -60 0 0 -115 0 -115 -55 0 -55
0 0 270 0 270 55 0 55 0 0 -110z m960 24 c0 -78 2 -85 18 -79 69 27 143 11
170 -38 13 -25 17 -56 17 -132 -1 -125 -18 -168 -79 -196 -42 -19 -134 -25
-195 -13 l-31 7 0 268 0 269 50 0 50 0 0 -86z m-3115 -78 c18 -8 39 -24 45
-36 6 -11 13 -71 15 -133 2 -62 4 -118 4 -124 1 -7 7 -13 14 -13 8 0 13 -12
13 -32 -1 -29 -5 -33 -30 -36 -15 -2 -40 1 -55 8 -21 8 -33 8 -57 -5 -58 -30
-149 -11 -175 36 -15 28 -14 120 1 148 16 30 85 61 138 61 34 0 42 3 42 19 0
41 -57 51 -148 25 -22 -6 -23 -4 -20 37 3 40 6 45 33 50 55 12 145 9 180 -5z
m433 8 c18 -5 22 -13 22 -50 l0 -43 -48 6 c-36 4 -52 1 -64 -10 -32 -33 -30
-176 4 -199 7 -5 34 -7 61 -4 l47 5 0 -43 c0 -37 -4 -45 -22 -50 -40 -10 -108
-6 -143 8 -55 23 -70 63 -70 188 0 92 3 110 21 135 38 52 119 76 192 57z m272
-189 l0 -195 -50 0 -50 0 0 195 0 195 50 0 50 0 0 -195z m401 169 c33 -29 49
-77 49 -149 l0 -65 -101 0 c-99 0 -100 0 -93 -22 13 -46 24 -51 96 -45 l68 6
0 -43 c0 -41 -2 -44 -31 -50 -54 -10 -128 -7 -165 9 -50 21 -73 77 -74 180 0
99 26 160 80 188 46 24 140 19 171 -9z m286 6 c5 -20 5 -20 30 0 14 11 41 20
59 20 l34 0 0 -50 c0 -47 -2 -50 -26 -50 -66 0 -84 -42 -84 -192 l0 -98 -50 0
-50 0 0 195 0 195 41 0 c32 0 42 -4 46 -20z m1263 -124 c0 -154 5 -171 52
-164 38 5 48 42 48 181 l0 127 50 0 50 0 0 -195 0 -195 -44 0 c-24 0 -46 5
-48 11 -2 6 -14 5 -33 -5 -60 -31 -140 -12 -163 39 -8 17 -12 83 -12 185 l0
160 50 0 50 0 0 -144z m-780 -11 l0 -45 -130 0 -130 0 0 45 0 45 130 0 130 0
0 -45z"/>
<path d="M7956 4968 c-12 -16 -16 -47 -16 -110 l0 -88 33 0 c53 0 70 26 70
114 1 81 -10 106 -49 106 -12 0 -30 -10 -38 -22z"/>
<path d="M4708 4849 c-21 -12 -24 -59 -6 -77 31 -31 78 3 78 56 0 28 -3 32
-27 32 -16 0 -36 -5 -45 -11z"/>
<path d="M5805 4990 c-4 -6 -10 -24 -15 -40 l-9 -30 50 0 c47 0 49 1 49 28 0
15 -5 33 -12 40 -15 15 -54 16 -63 2z"/>
</g>
</svg>
