<?xml version="1.0" standalone="no"?>
<!DOCTYPE svg PUBLIC "-//W3C//DTD SVG 20010904//EN"
 "http://www.w3.org/TR/2001/REC-SVG-20010904/DTD/svg10.dtd">
<svg version="1.0" xmlns="http://www.w3.org/2000/svg"
 width="1200.000000pt" height="1200.000000pt" viewBox="0 0 1200.000000 1200.000000"
 preserveAspectRatio="xMidYMid meet">
<metadata>
Created by potrace 1.11, written by Peter Selinger 2001-2013
</metadata>
<g transform="translate(0.000000,1200.000000) scale(0.100000,-0.100000)"
fill="#000000" stroke="none">
<path d="M5780 10794 c-571 -33 -1057 -140 -1575 -344 -183 -73 -504 -233
-680 -340 -988 -599 -1714 -1506 -2075 -2590 -239 -716 -305 -1453 -199 -2205
71 -503 227 -1002 458 -1463 98 -195 165 -310 306 -522 650 -977 1675 -1701
2801 -1979 449 -110 745 -146 1194 -145 634 2 1197 109 1765 336 625 250 1191
628 1655 1104 360 370 618 731 850 1189 434 855 598 1807 479 2768 -145 1174
-735 2268 -1640 3042 -858 733 -1923 1135 -3044 1149 -132 2 -265 2 -295 0z
m546 -124 c641 -50 1186 -197 1739 -470 494 -244 892 -534 1285 -936 249 -255
429 -482 613 -774 970 -1542 955 -3514 -37 -5040 -277 -426 -649 -829 -1056
-1147 -646 -503 -1453 -842 -2244 -943 -465 -59 -960 -52 -1387 20 -969 164
-1838 607 -2529 1291 -678 671 -1126 1510 -1309 2449 -88 452 -105 1006 -45
1475 125 972 555 1883 1231 2606 711 760 1668 1266 2692 1424 134 20 262 35
426 48 97 8 504 6 621 -3z"/>
<path d="M5703 10549 c-875 -55 -1766 -389 -2463 -922 -361 -277 -707 -635
-966 -1002 -364 -514 -623 -1116 -744 -1730 -186 -948 -76 -1910 318 -2775
845 -1854 2795 -2922 4804 -2630 891 130 1711 512 2379 1108 597 534 1038
1201 1289 1952 342 1024 314 2114 -81 3125 -64 163 -193 432 -283 590 -143
249 -363 554 -552 767 -762 853 -1801 1384 -2944 1503 -174 18 -575 26 -757
14z m672 -120 c926 -72 1825 -451 2535 -1068 1191 -1036 1747 -2614 1465
-4159 -168 -915 -606 -1735 -1273 -2383 -337 -329 -685 -577 -1102 -788 -654
-331 -1338 -488 -2070 -476 -949 17 -1840 320 -2588 882 -531 399 -950 885
-1262 1462 -283 526 -451 1085 -511 1706 -19 191 -16 645 5 835 62 570 198
1045 442 1535 644 1298 1883 2204 3309 2420 347 52 683 63 1050 34z"/>
<path d="M5966 9654 c-13 -13 -16 -46 -16 -202 l0 -186 -109 107 c-69 68 -116
107 -129 107 -29 0 -57 -43 -43 -67 5 -10 71 -79 145 -153 l136 -135 0 -282
c0 -156 -2 -283 -4 -283 -10 0 -463 265 -477 279 -9 9 -30 72 -48 141 -61 237
-69 259 -97 266 -31 8 -54 -11 -54 -45 0 -14 16 -84 35 -155 19 -72 33 -131
32 -132 -1 -2 -61 31 -132 72 -190 111 -202 116 -224 105 -25 -14 -33 -38 -21
-61 5 -10 82 -60 170 -111 88 -50 159 -93 158 -94 -2 -2 -66 -20 -143 -40 -77
-21 -146 -42 -152 -48 -16 -12 -17 -49 -1 -65 19 -19 53 -14 241 37 l177 48
245 -141 c135 -77 241 -144 237 -148 -5 -5 -114 -69 -243 -144 l-234 -136
-100 26 c-55 14 -146 38 -202 53 -114 30 -133 26 -133 -28 0 -35 6 -38 145
-74 55 -14 115 -31 133 -37 l33 -10 -162 -94 c-159 -93 -179 -107 -179 -131 0
-18 29 -43 50 -43 10 0 89 41 175 91 86 50 158 89 160 87 2 -2 -12 -62 -31
-133 -39 -144 -40 -184 -7 -196 43 -16 58 14 112 215 28 105 56 193 63 197 7
5 117 68 243 141 l230 134 3 -285 2 -285 -145 -146 c-130 -131 -145 -149 -137
-170 5 -13 19 -27 32 -32 20 -7 36 5 136 104 l114 112 0 -187 c0 -174 1 -188
20 -207 11 -11 25 -20 30 -20 6 0 19 9 30 20 19 19 20 33 20 207 l0 187 114
-112 c100 -99 116 -111 136 -104 13 5 27 19 32 32 8 21 -7 39 -137 169 l-145
147 0 286 0 286 243 -140 c133 -77 243 -141 245 -143 2 -2 26 -88 53 -191 54
-201 69 -231 112 -215 33 12 32 52 -7 196 -19 71 -33 131 -31 133 2 2 74 -37
160 -87 86 -50 165 -91 175 -91 21 0 50 25 50 43 0 24 -20 38 -179 131 l-162
94 33 10 c18 6 78 23 133 37 139 36 145 39 145 74 0 54 -19 58 -133 28 -56
-15 -147 -39 -202 -53 l-100 -26 -234 136 c-129 75 -238 139 -243 144 -9 9
461 282 487 282 10 0 94 -20 186 -45 178 -48 208 -52 227 -33 16 16 15 53 0
65 -7 6 -76 27 -153 48 -77 20 -141 38 -143 40 -1 1 70 44 158 95 88 50 164
99 169 108 12 23 -3 58 -28 65 -14 3 -71 -24 -183 -88 -90 -52 -164 -93 -165
-91 -1 1 13 60 32 132 19 71 35 141 35 155 0 34 -23 53 -54 45 -28 -7 -36 -29
-97 -266 -18 -69 -39 -132 -48 -141 -14 -14 -467 -279 -477 -279 -2 0 -4 127
-4 283 l0 282 139 139 c77 77 142 147 144 157 7 25 -20 59 -45 59 -13 0 -61
-40 -129 -107 l-109 -107 0 186 c0 198 -5 218 -50 218 -10 0 -26 -7 -34 -16z"/>
<path d="M3180 6600 l0 -60 85 0 85 0 0 -290 0 -290 -85 0 -85 0 0 -60 0 -60
240 0 240 0 0 60 0 60 -80 0 -80 0 0 350 0 350 -160 0 -160 0 0 -60z"/>
<path d="M9000 6250 l0 -410 65 0 c56 0 65 2 65 18 0 31 10 32 51 5 82 -54
195 -38 263 37 50 56 69 128 64 248 -5 161 -63 250 -174 271 -59 11 -116 1
-155 -28 l-28 -21 -3 142 -3 143 -72 3 -73 3 0 -411z m295 46 c41 -17 60 -53
69 -126 15 -127 -31 -220 -110 -220 -41 0 -89 22 -98 45 -3 9 -6 72 -6 139 0
133 4 142 60 165 34 14 46 13 85 -3z"/>
<path d="M5316 6619 c-33 -26 -36 -79 -6 -109 31 -31 102 -28 129 6 28 35 26
69 -4 99 -30 31 -82 33 -119 4z"/>
<path d="M2698 6619 c-95 -14 -175 -91 -208 -197 -16 -50 -20 -93 -20 -196 0
-190 32 -281 120 -345 98 -71 273 -64 393 15 l37 24 0 160 0 160 -134 0 c-148
0 -142 3 -141 -70 l1 -45 62 -3 62 -3 0 -70 0 -70 -35 -15 c-76 -31 -157 -7
-192 58 -26 49 -32 306 -8 377 23 69 62 101 124 101 60 0 98 -27 107 -75 l6
-35 74 0 c85 0 85 0 54 83 -32 86 -98 134 -200 146 -30 4 -76 3 -102 0z"/>
<path d="M7690 6225 l0 -385 70 0 70 0 2 168 3 167 108 3 107 3 0 -171 0 -170
75 0 75 0 0 385 0 385 -75 0 -75 0 0 -155 0 -155 -110 0 -110 0 0 155 0 155
-70 0 -70 0 0 -385z"/>
<path d="M3990 6423 c-112 -20 -180 -75 -191 -153 -4 -24 -2 -24 64 -25 65 -1
69 1 83 26 16 32 70 53 110 43 47 -11 74 -42 74 -86 l0 -38 -78 0 c-88 0 -166
-19 -207 -52 -33 -26 -65 -91 -65 -133 0 -51 35 -111 81 -142 37 -25 52 -28
119 -28 67 0 82 4 118 28 l42 27 6 -25 c6 -24 9 -25 81 -25 74 0 75 1 68 23
-4 12 -10 114 -14 227 -4 126 -11 213 -18 225 -19 33 -66 73 -103 88 -39 17
-132 28 -170 20z m138 -380 c-3 -58 -3 -58 -48 -81 -76 -39 -150 -13 -150 54
0 24 8 39 31 58 26 23 40 26 100 26 l70 0 -3 -57z"/>
<path d="M4643 6420 c-138 -29 -209 -131 -207 -300 1 -129 45 -213 139 -263
54 -29 193 -31 245 -3 73 39 120 99 120 156 l0 30 -65 0 c-61 0 -65 -2 -71
-25 -16 -66 -126 -90 -178 -39 -51 52 -63 186 -23 264 44 89 158 89 195 0 l17
-40 65 2 65 3 -4 35 c-4 41 -31 98 -58 122 -51 47 -163 74 -240 58z"/>
<path d="M5940 6417 c-133 -37 -210 -147 -210 -298 0 -115 56 -206 160 -260
38 -20 59 -24 135 -24 77 1 97 5 140 27 28 14 60 37 72 50 l23 24 -39 38 c-27
26 -41 34 -46 26 -14 -23 -90 -50 -140 -50 -74 0 -129 39 -150 108 l-6 22 195
0 196 0 0 58 c0 162 -88 269 -235 286 -28 3 -70 0 -95 -7z m140 -135 c24 -18
52 -79 43 -94 -2 -5 -58 -8 -123 -8 l-119 0 9 32 c11 35 45 76 75 89 28 12 85
3 115 -19z"/>
<path d="M6765 6421 c-44 -11 -87 -36 -114 -65 -29 -30 -41 -21 -41 32 l0 33
-67 -3 -68 -3 -3 -287 -2 -288 75 0 75 0 0 176 c0 160 2 178 20 204 32 44 96
64 183 56 l73 -6 10 70 c11 79 14 75 -66 84 -25 2 -58 1 -75 -3z"/>
<path d="M5137 6413 c-2 -5 -3 -30 -3 -58 l1 -50 80 -5 80 -5 3 -167 2 -168
-83 0 -84 0 1 -57 1 -58 233 -3 232 -2 0 60 0 60 -75 0 -75 0 -2 228 -3 227
-152 3 c-83 1 -153 -1 -156 -5z"/>
<path d="M8352 6198 c3 -205 5 -226 25 -263 38 -72 94 -105 175 -105 43 0 103
27 132 59 23 26 36 19 36 -20 l0 -29 65 0 65 0 0 290 0 290 -70 0 -70 0 0
-201 c0 -118 -4 -208 -10 -220 -26 -47 -128 -65 -171 -30 -24 19 -24 23 -29
233 l-5 213 -73 3 -74 3 4 -223z"/>
<path d="M7120 6180 l0 -60 220 0 220 0 0 60 0 60 -220 0 -220 0 0 -60z"/>
<path d="M3000 4140 l0 -60 3000 0 3000 0 0 60 0 60 -3000 0 -3000 0 0 -60z"/>
</g>
</svg>
